<mxfile host="app.diagrams.net" modified="2020-10-19T05:02:25.443Z" agent="5.0 (Windows NT 10.0; Win64; x64) AppleWebKit/537.36 (KHTML, like Gecko) Chrome/86.0.4240.75 Safari/537.36" etag="becs23wcLQMorIuedo5e" version="13.8.0" type="github">
  <diagram id="ZjUCXRDBl8xt-IC6fDl1" name="Page-1">
    <mxGraphModel dx="1038" dy="523" grid="1" gridSize="10" guides="1" tooltips="1" connect="1" arrows="1" fold="1" page="1" pageScale="1" pageWidth="850" pageHeight="1100" math="0" shadow="0">
      <root>
        <mxCell id="0" />
        <mxCell id="1" parent="0" />
        <mxCell id="znIfJXlI9WTtuQaWLm0x-1" value="" style="rounded=0;whiteSpace=wrap;html=1;" vertex="1" parent="1">
          <mxGeometry x="20" y="60" width="360" height="290" as="geometry" />
        </mxCell>
        <mxCell id="znIfJXlI9WTtuQaWLm0x-10" value="Smart contracts" style="strokeWidth=2;html=1;shape=mxgraph.flowchart.multi-document;whiteSpace=wrap;" vertex="1" parent="1">
          <mxGeometry x="30" y="145" width="120" height="110" as="geometry" />
        </mxCell>
        <mxCell id="znIfJXlI9WTtuQaWLm0x-11" value="Code in Nestjs" style="shape=parallelogram;html=1;strokeWidth=2;perimeter=parallelogramPerimeter;whiteSpace=wrap;rounded=1;arcSize=12;size=0.23;" vertex="1" parent="1">
          <mxGeometry x="180" y="85" width="140" height="45" as="geometry" />
        </mxCell>
        <mxCell id="znIfJXlI9WTtuQaWLm0x-12" value="&lt;span&gt;Truffle framework&lt;/span&gt;" style="rounded=1;whiteSpace=wrap;html=1;absoluteArcSize=1;arcSize=14;strokeWidth=2;" vertex="1" parent="1">
          <mxGeometry x="170" y="170" width="150" height="50" as="geometry" />
        </mxCell>
        <mxCell id="znIfJXlI9WTtuQaWLm0x-13" value="web3.js" style="rounded=1;whiteSpace=wrap;html=1;absoluteArcSize=1;arcSize=14;strokeWidth=2;" vertex="1" parent="1">
          <mxGeometry x="170" y="260" width="140" height="50" as="geometry" />
        </mxCell>
        <mxCell id="znIfJXlI9WTtuQaWLm0x-14" value="" style="rounded=0;whiteSpace=wrap;html=1;" vertex="1" parent="1">
          <mxGeometry x="160" y="420" width="630" height="150" as="geometry" />
        </mxCell>
        <mxCell id="znIfJXlI9WTtuQaWLm0x-16" value="After compilation, &lt;br&gt;deploy&lt;br&gt;&amp;nbsp;in cloud as&lt;br&gt;microservice" style="verticalLabelPosition=bottom;verticalAlign=top;html=1;strokeWidth=2;shape=mxgraph.arrows2.arrow;dy=0.6;dx=40;notch=0;" vertex="1" parent="1">
          <mxGeometry x="380" y="140" width="100" height="70" as="geometry" />
        </mxCell>
        <mxCell id="znIfJXlI9WTtuQaWLm0x-18" value="Backend APP" style="text;html=1;strokeColor=none;fillColor=none;align=center;verticalAlign=middle;whiteSpace=wrap;rounded=0;" vertex="1" parent="1">
          <mxGeometry x="90" y="70" width="70" height="10" as="geometry" />
        </mxCell>
        <mxCell id="znIfJXlI9WTtuQaWLm0x-19" style="edgeStyle=orthogonalEdgeStyle;rounded=0;orthogonalLoop=1;jettySize=auto;html=1;exitX=0.5;exitY=1;exitDx=0;exitDy=0;" edge="1" parent="1" source="znIfJXlI9WTtuQaWLm0x-18" target="znIfJXlI9WTtuQaWLm0x-18">
          <mxGeometry relative="1" as="geometry" />
        </mxCell>
        <mxCell id="znIfJXlI9WTtuQaWLm0x-27" style="edgeStyle=orthogonalEdgeStyle;rounded=0;orthogonalLoop=1;jettySize=auto;html=1;" edge="1" parent="1" source="znIfJXlI9WTtuQaWLm0x-20" target="znIfJXlI9WTtuQaWLm0x-43">
          <mxGeometry relative="1" as="geometry">
            <mxPoint x="660" y="175" as="targetPoint" />
          </mxGeometry>
        </mxCell>
        <mxCell id="znIfJXlI9WTtuQaWLm0x-20" value="cloud deployment" style="ellipse;whiteSpace=wrap;html=1;aspect=fixed;" vertex="1" parent="1">
          <mxGeometry x="480" y="119.38" width="111.25" height="111.25" as="geometry" />
        </mxCell>
        <mxCell id="znIfJXlI9WTtuQaWLm0x-28" value="User can &lt;br&gt;access&lt;br&gt;&amp;nbsp;the API" style="text;html=1;align=center;verticalAlign=middle;resizable=0;points=[];autosize=1;" vertex="1" parent="1">
          <mxGeometry x="591.25" y="110" width="60" height="50" as="geometry" />
        </mxCell>
        <mxCell id="znIfJXlI9WTtuQaWLm0x-29" value="Ethereum Node(Ganache)" style="text;html=1;strokeColor=none;fillColor=none;align=center;verticalAlign=middle;whiteSpace=wrap;rounded=0;" vertex="1" parent="1">
          <mxGeometry x="320" y="430" width="100" height="20" as="geometry" />
        </mxCell>
        <mxCell id="znIfJXlI9WTtuQaWLm0x-30" value="Block" style="whiteSpace=wrap;html=1;aspect=fixed;" vertex="1" parent="1">
          <mxGeometry x="210" y="480" width="80" height="80" as="geometry" />
        </mxCell>
        <mxCell id="znIfJXlI9WTtuQaWLm0x-36" value="" style="edgeStyle=orthogonalEdgeStyle;rounded=0;orthogonalLoop=1;jettySize=auto;html=1;" edge="1" parent="1" source="znIfJXlI9WTtuQaWLm0x-31" target="znIfJXlI9WTtuQaWLm0x-32">
          <mxGeometry relative="1" as="geometry" />
        </mxCell>
        <mxCell id="znIfJXlI9WTtuQaWLm0x-31" value="Block" style="whiteSpace=wrap;html=1;aspect=fixed;" vertex="1" parent="1">
          <mxGeometry x="450" y="480" width="80" height="80" as="geometry" />
        </mxCell>
        <mxCell id="znIfJXlI9WTtuQaWLm0x-34" style="edgeStyle=orthogonalEdgeStyle;rounded=0;orthogonalLoop=1;jettySize=auto;html=1;entryX=1;entryY=0.5;entryDx=0;entryDy=0;" edge="1" parent="1" source="znIfJXlI9WTtuQaWLm0x-32" target="znIfJXlI9WTtuQaWLm0x-30">
          <mxGeometry relative="1" as="geometry" />
        </mxCell>
        <mxCell id="znIfJXlI9WTtuQaWLm0x-32" value="Block" style="whiteSpace=wrap;html=1;aspect=fixed;" vertex="1" parent="1">
          <mxGeometry x="330" y="480" width="80" height="80" as="geometry" />
        </mxCell>
        <mxCell id="znIfJXlI9WTtuQaWLm0x-37" value="" style="edgeStyle=orthogonalEdgeStyle;rounded=0;orthogonalLoop=1;jettySize=auto;html=1;" edge="1" parent="1" source="znIfJXlI9WTtuQaWLm0x-33" target="znIfJXlI9WTtuQaWLm0x-31">
          <mxGeometry relative="1" as="geometry" />
        </mxCell>
        <mxCell id="znIfJXlI9WTtuQaWLm0x-33" value="Block" style="whiteSpace=wrap;html=1;aspect=fixed;" vertex="1" parent="1">
          <mxGeometry x="562.5" y="480" width="80" height="80" as="geometry" />
        </mxCell>
        <mxCell id="znIfJXlI9WTtuQaWLm0x-40" value="" style="shape=singleArrow;direction=south;whiteSpace=wrap;html=1;" vertex="1" parent="1">
          <mxGeometry x="200" y="350" width="110" height="70" as="geometry" />
        </mxCell>
        <mxCell id="znIfJXlI9WTtuQaWLm0x-41" value="" style="shape=singleArrow;direction=south;whiteSpace=wrap;html=1;" vertex="1" parent="1">
          <mxGeometry x="630" y="205" width="110" height="215" as="geometry" />
        </mxCell>
        <mxCell id="znIfJXlI9WTtuQaWLm0x-42" value="" style="shape=actor;whiteSpace=wrap;html=1;" vertex="1" parent="1">
          <mxGeometry x="800" y="145" width="40" height="60" as="geometry" />
        </mxCell>
        <mxCell id="znIfJXlI9WTtuQaWLm0x-44" value="" style="edgeStyle=orthogonalEdgeStyle;rounded=0;orthogonalLoop=1;jettySize=auto;html=1;" edge="1" parent="1" source="znIfJXlI9WTtuQaWLm0x-43" target="znIfJXlI9WTtuQaWLm0x-42">
          <mxGeometry relative="1" as="geometry" />
        </mxCell>
        <mxCell id="znIfJXlI9WTtuQaWLm0x-43" value="Browser or postman to access API" style="strokeWidth=2;html=1;shape=mxgraph.flowchart.display;whiteSpace=wrap;" vertex="1" parent="1">
          <mxGeometry x="642.5" y="145" width="100" height="60" as="geometry" />
        </mxCell>
        <mxCell id="znIfJXlI9WTtuQaWLm0x-47" value="" style="edgeStyle=orthogonalEdgeStyle;rounded=0;orthogonalLoop=1;jettySize=auto;html=1;" edge="1" parent="1" source="znIfJXlI9WTtuQaWLm0x-46" target="znIfJXlI9WTtuQaWLm0x-33">
          <mxGeometry relative="1" as="geometry" />
        </mxCell>
        <mxCell id="znIfJXlI9WTtuQaWLm0x-46" value="Block" style="whiteSpace=wrap;html=1;aspect=fixed;" vertex="1" parent="1">
          <mxGeometry x="670" y="480" width="80" height="80" as="geometry" />
        </mxCell>
      </root>
    </mxGraphModel>
  </diagram>
</mxfile>
